<svg version="1.1" id="Layer_1" xmlns="http://www.w3.org/2000/svg" xmlns:xlink="http://www.w3.org/1999/xlink" viewBox="0 0 23 23" xml:space="preserve" width="23" height="23"><path style="fill:#88C5CC;" d="M11.5 0C5.149 0 0 5.149 0 11.5s5.149 11.5 11.5 11.5 11.5 -5.149 11.5 -11.5S17.851 0 11.5 0z"/><path style="fill:#2D4452;" d="M16.891 15.813c0 0.593 -0.485 1.078 -1.078 1.078H7.188c-0.593 0 -1.078 -0.485 -1.078 -1.078V7.188c0 -0.593 0.485 -1.078 1.078 -1.078h8.625c0.593 0 1.078 0.485 1.078 1.078v8.625z"/><path style="fill:#233540;" d="M15.813 6.109h-0.719c0.593 0 1.078 0.485 1.078 1.078v8.625c0 0.593 -0.485 1.078 -1.078 1.078h0.719c0.593 0 1.078 -0.485 1.078 -1.078V7.188c0 -0.593 -0.485 -1.078 -1.078 -1.078z"/><g><path style="fill:#C2D5D8;" cx="352" cy="160" r="4" d="M15.992 7.188A0.18 0.18 0 0 1 15.813 7.367A0.18 0.18 0 0 1 15.633 7.188A0.18 0.18 0 0 1 15.992 7.188z"/><path style="fill:#C2D5D8;" cx="160" cy="160" r="4" d="M7.367 7.188A0.18 0.18 0 0 1 7.188 7.367A0.18 0.18 0 0 1 7.008 7.188A0.18 0.18 0 0 1 7.367 7.188z"/><path style="fill:#C2D5D8;" cx="352" cy="352" r="4" d="M15.992 15.813A0.18 0.18 0 0 1 15.813 15.992A0.18 0.18 0 0 1 15.633 15.813A0.18 0.18 0 0 1 15.992 15.813z"/><path style="fill:#C2D5D8;" cx="160" cy="352" r="4" d="M7.367 15.813A0.18 0.18 0 0 1 7.188 15.992A0.18 0.18 0 0 1 7.008 15.813A0.18 0.18 0 0 1 7.367 15.813z"/></g><g><path style="fill:#F5F5F5;" d="M8.266 5.211c-0.099 0 -0.18 -0.081 -0.18 -0.18V2.695c0 -0.099 0.08 -0.18 0.18 -0.18s0.18 0.081 0.18 0.18v2.336c0 0.099 -0.08 0.18 -0.18 0.18z"/><path style="fill:#F5F5F5;" d="M9.164 5.211c-0.099 0 -0.18 -0.081 -0.18 -0.18V2.695c0 -0.099 0.08 -0.18 0.18 -0.18s0.18 0.081 0.18 0.18v2.336c0 0.099 -0.08 0.18 -0.18 0.18z"/><path style="fill:#F5F5F5;" d="M10.242 5.211c-0.099 0 -0.18 -0.081 -0.18 -0.18V2.695c0 -0.099 0.08 -0.18 0.18 -0.18s0.18 0.081 0.18 0.18v2.336c0 0.099 -0.08 0.18 -0.18 0.18z"/><path style="fill:#F5F5F5;" d="M11.141 5.211c-0.099 0 -0.18 -0.081 -0.18 -0.18V2.695c0 -0.099 0.08 -0.18 0.18 -0.18s0.18 0.081 0.18 0.18v2.336c0 0.099 -0.08 0.18 -0.18 0.18z"/><path style="fill:#F5F5F5;" d="M12.039 5.211c-0.099 0 -0.18 -0.081 -0.18 -0.18V2.695c0 -0.099 0.08 -0.18 0.18 -0.18s0.18 0.081 0.18 0.18v2.336c0 0.099 -0.08 0.18 -0.18 0.18z"/><path style="fill:#F5F5F5;" d="M12.938 5.211c-0.099 0 -0.18 -0.081 -0.18 -0.18V2.695c0 -0.099 0.08 -0.18 0.18 -0.18s0.18 0.081 0.18 0.18v2.336c0 0.099 -0.08 0.18 -0.18 0.18z"/><path style="fill:#F5F5F5;" d="M14.016 5.211c-0.099 0 -0.18 -0.081 -0.18 -0.18V2.695c0 -0.099 0.08 -0.18 0.18 -0.18s0.18 0.081 0.18 0.18v2.336c0 0.099 -0.08 0.18 -0.18 0.18z"/><path style="fill:#F5F5F5;" d="M14.914 5.211c-0.099 0 -0.18 -0.081 -0.18 -0.18V2.695c0 -0.099 0.08 -0.18 0.18 -0.18s0.18 0.081 0.18 0.18v2.336c0 0.099 -0.08 0.18 -0.18 0.18z"/><path style="fill:#F5F5F5;" d="M8.266 20.484c-0.099 0 -0.18 -0.081 -0.18 -0.18v-2.336c0 -0.099 0.08 -0.18 0.18 -0.18s0.18 0.081 0.18 0.18v2.336c0 0.099 -0.08 0.18 -0.18 0.18z"/><path style="fill:#F5F5F5;" d="M9.164 20.484c-0.099 0 -0.18 -0.081 -0.18 -0.18v-2.336c0 -0.099 0.08 -0.18 0.18 -0.18s0.18 0.081 0.18 0.18v2.336c0 0.099 -0.08 0.18 -0.18 0.18z"/><path style="fill:#F5F5F5;" d="M10.242 20.484c-0.099 0 -0.18 -0.081 -0.18 -0.18v-2.336c0 -0.099 0.08 -0.18 0.18 -0.18s0.18 0.081 0.18 0.18v2.336c0 0.099 -0.08 0.18 -0.18 0.18z"/><path style="fill:#F5F5F5;" d="M11.141 20.484c-0.099 0 -0.18 -0.081 -0.18 -0.18v-2.336c0 -0.099 0.08 -0.18 0.18 -0.18s0.18 0.081 0.18 0.18v2.336c0 0.099 -0.08 0.18 -0.18 0.18z"/><path style="fill:#F5F5F5;" d="M12.039 20.484c-0.099 0 -0.18 -0.081 -0.18 -0.18v-2.336c0 -0.099 0.08 -0.18 0.18 -0.18s0.18 0.081 0.18 0.18v2.336c0 0.099 -0.08 0.18 -0.18 0.18z"/><path style="fill:#F5F5F5;" d="M12.938 20.484c-0.099 0 -0.18 -0.081 -0.18 -0.18v-2.336c0 -0.099 0.08 -0.18 0.18 -0.18s0.18 0.081 0.18 0.18v2.336c0 0.099 -0.08 0.18 -0.18 0.18z"/><path style="fill:#F5F5F5;" d="M14.016 20.484c-0.099 0 -0.18 -0.081 -0.18 -0.18v-2.336c0 -0.099 0.08 -0.18 0.18 -0.18s0.18 0.081 0.18 0.18v2.336c0 0.099 -0.08 0.18 -0.18 0.18z"/><path style="fill:#F5F5F5;" d="M14.914 20.484c-0.099 0 -0.18 -0.081 -0.18 -0.18v-2.336c0 -0.099 0.08 -0.18 0.18 -0.18s0.18 0.081 0.18 0.18v2.336c0 0.099 -0.08 0.18 -0.18 0.18z"/><path style="fill:#F5F5F5;" d="M5.031 15.094H2.695c-0.099 0 -0.18 -0.081 -0.18 -0.18s0.08 -0.18 0.18 -0.18h2.336c0.099 0 0.18 0.081 0.18 0.18s-0.08 0.18 -0.18 0.18z"/><path style="fill:#F5F5F5;" d="M5.031 14.195H2.695c-0.099 0 -0.18 -0.081 -0.18 -0.18s0.08 -0.18 0.18 -0.18h2.336c0.099 0 0.18 0.081 0.18 0.18s-0.08 0.18 -0.18 0.18z"/><path style="fill:#F5F5F5;" d="M5.031 13.117H2.695c-0.099 0 -0.18 -0.081 -0.18 -0.18s0.08 -0.18 0.18 -0.18h2.336c0.099 0 0.18 0.081 0.18 0.18s-0.08 0.18 -0.18 0.18z"/><path style="fill:#F5F5F5;" d="M5.031 12.219H2.695c-0.099 0 -0.18 -0.081 -0.18 -0.18s0.08 -0.18 0.18 -0.18h2.336c0.099 0 0.18 0.081 0.18 0.18s-0.08 0.18 -0.18 0.18z"/><path style="fill:#F5F5F5;" d="M5.031 11.32H2.695c-0.099 0 -0.18 -0.081 -0.18 -0.18s0.08 -0.18 0.18 -0.18h2.336c0.099 0 0.18 0.081 0.18 0.18s-0.08 0.18 -0.18 0.18z"/><path style="fill:#F5F5F5;" d="M5.031 10.422H2.695c-0.099 0 -0.18 -0.081 -0.18 -0.18s0.08 -0.18 0.18 -0.18h2.336c0.099 0 0.18 0.081 0.18 0.18s-0.08 0.18 -0.18 0.18z"/><path style="fill:#F5F5F5;" d="M5.031 9.344H2.695c-0.099 0 -0.18 -0.081 -0.18 -0.18s0.08 -0.18 0.18 -0.18h2.336c0.099 0 0.18 0.081 0.18 0.18s-0.08 0.18 -0.18 0.18z"/><path style="fill:#F5F5F5;" d="M5.031 8.445H2.695c-0.099 0 -0.18 -0.081 -0.18 -0.18s0.08 -0.18 0.18 -0.18h2.336c0.099 0 0.18 0.081 0.18 0.18s-0.08 0.18 -0.18 0.18z"/><path style="fill:#F5F5F5;" d="M20.305 15.094h-2.336c-0.099 0 -0.18 -0.081 -0.18 -0.18s0.08 -0.18 0.18 -0.18h2.336c0.099 0 0.18 0.081 0.18 0.18s-0.08 0.18 -0.18 0.18z"/><path style="fill:#F5F5F5;" d="M20.305 14.195h-2.336c-0.099 0 -0.18 -0.081 -0.18 -0.18s0.08 -0.18 0.18 -0.18h2.336c0.099 0 0.18 0.081 0.18 0.18s-0.08 0.18 -0.18 0.18z"/><path style="fill:#F5F5F5;" d="M20.305 13.117h-2.336c-0.099 0 -0.18 -0.081 -0.18 -0.18s0.08 -0.18 0.18 -0.18h2.336c0.099 0 0.18 0.081 0.18 0.18s-0.08 0.18 -0.18 0.18z"/><path style="fill:#F5F5F5;" d="M20.305 12.219h-2.336c-0.099 0 -0.18 -0.081 -0.18 -0.18s0.08 -0.18 0.18 -0.18h2.336c0.099 0 0.18 0.081 0.18 0.18s-0.08 0.18 -0.18 0.18z"/><path style="fill:#F5F5F5;" d="M20.305 11.32h-2.336c-0.099 0 -0.18 -0.081 -0.18 -0.18s0.08 -0.18 0.18 -0.18h2.336c0.099 0 0.18 0.081 0.18 0.18s-0.08 0.18 -0.18 0.18z"/><path style="fill:#F5F5F5;" d="M20.305 10.422h-2.336c-0.099 0 -0.18 -0.081 -0.18 -0.18s0.08 -0.18 0.18 -0.18h2.336c0.099 0 0.18 0.081 0.18 0.18s-0.08 0.18 -0.18 0.18z"/><path style="fill:#F5F5F5;" d="M20.305 9.344h-2.336c-0.099 0 -0.18 -0.081 -0.18 -0.18s0.08 -0.18 0.18 -0.18h2.336c0.099 0 0.18 0.081 0.18 0.18s-0.08 0.18 -0.18 0.18z"/><path style="fill:#F5F5F5;" d="M20.305 8.445h-2.336c-0.099 0 -0.18 -0.081 -0.18 -0.18s0.08 -0.18 0.18 -0.18h2.336c0.099 0 0.18 0.081 0.18 0.18s-0.08 0.18 -0.18 0.18z"/></g><g><path style="fill:#CCCCCC;" d="M15.453 6.109v-0.719c0 -0.198 -0.162 -0.359 -0.359 -0.359H7.906c-0.198 0 -0.359 0.162 -0.359 0.359v0.719h7.906z"/><path style="fill:#CCCCCC;" d="M15.453 16.891v0.719c0 0.198 -0.162 0.359 -0.359 0.359H7.906c-0.198 0 -0.359 -0.162 -0.359 -0.359v-0.719h7.906z"/><path style="fill:#CCCCCC;" d="M6.109 7.547h-0.719c-0.198 0 -0.359 0.162 -0.359 0.359v7.188c0 0.198 0.162 0.359 0.359 0.359h0.719V7.547z"/><path style="fill:#CCCCCC;" d="M16.891 7.547h0.719c0.198 0 0.359 0.162 0.359 0.359v7.188c0 0.198 -0.162 0.359 -0.359 0.359h-0.719V7.547z"/></g><g><path x="168" y="132" style="fill:#B3B3B3;" width="176" height="4" d="M7.547 5.93H15.453V6.109H7.547V5.93z"/><path x="168" y="376" style="fill:#B3B3B3;" width="176" height="4" d="M7.547 16.891H15.453V17.07H7.547V16.891z"/><path x="132" y="168" style="fill:#B3B3B3;" width="4" height="176" d="M5.93 7.547H6.109V15.453H5.93V7.547z"/><path x="376" y="168" style="fill:#B3B3B3;" width="4" height="176" d="M16.891 7.547H17.07V15.453H16.891V7.547z"/></g></svg>